<?xml version="1.0" encoding="utf-8"?>
<!-- Generator: Adobe Illustrator 19.0.0, SVG Export Plug-In . SVG Version: 6.00 Build 0)  -->
<svg version="1.1" id="layer" xmlns="http://www.w3.org/2000/svg" xmlns:xlink="http://www.w3.org/1999/xlink" x="0px" y="0px"
	 viewBox="-153 -46 652 652" style="enable-background:new -153 -46 652 652;" xml:space="preserve">
<path class="st0" d="M-92,326.5l19.3-53l-54.8,18.7c-6.2,2.1-2.2-2.9-2.2-2.9l8.5-10.7c4-5.1,10.6-5.1,10.6-5.1s-6.6,0-10.6-5.1
	l-8.5-10.7c0,0-4-5.1,2.2-2.9l54.8,18.7v36.7c0,0,0,6.4-5.2,10.3l-11,8.2C-88.9,328.6-94.2,332.5-92,326.5 M-72.7,236.8v36.7
	l-19.3-53c-2.2-6,3-2.1,3-2.1l11,8.2C-72.7,230.4-72.7,236.8-72.7,236.8"/>
<path class="st1" d="M186.8,303.8h5.1l2.5-6.8h9.6l2.6,6.8h5.3l-10.8-27.1h-3.9L186.8,303.8z M195.8,293.1l2-5.3
	c0.7-2.1,1.1-3.3,1.4-4.2h0.1c0.2,0.9,0.6,2.1,1.4,4.2l1.9,5.4H195.8z M225.4,304.3c5,0,8.5-1.7,10.1-5.2c0.7-1.4,1-3.2,1-5.3v-16.9
	h-4.9v16.5c0,1.5-0.2,2.7-0.7,3.7c-0.9,1.9-2.8,3-5.5,3c-2.7,0-4.6-1.1-5.5-3c-0.5-1-0.7-2.2-0.7-3.6v-16.6h-4.9v16.9
	c0,2,0.3,3.8,1,5.2C216.9,302.5,220.4,304.3,225.4,304.3 M248.1,303.8h4.9v-22.8h7.2l1.3-4.2h-21.3v4.2h7.9V303.8z M265,303.8h4.9
	v-11.7h12.9v11.7h5v-27h-5V288h-12.9v-11.1H265V303.8z M306.7,304.3c7.9,0,13.6-5.5,13.6-13.8c0-8.1-5.6-13.8-13.6-13.8
	c-8,0-13.6,5.6-13.6,13.8C293.1,298.7,298.7,304.3,306.7,304.3 M306.7,300.1c-5,0-8.3-3.6-8.3-9.7c0-6.1,3.4-9.7,8.3-9.7
	c5.1,0,8.3,3.7,8.3,9.7C315,296.6,311.6,300.1,306.7,300.1 M325.5,303.8h4.9v-10.5h2.3c0.7,0.2,1.6,1.3,2.9,3.7l3.9,6.8h5.6
	l-4.5-7.9c-1.4-2.5-2.5-3.9-3.4-4.4v-0.1c3.1-1,5.3-3.4,5.3-7c0-2.7-1.1-5.2-4-6.6c-1.4-0.7-3.2-1.1-5.8-1.1h-7.4V303.8z
	 M330.5,289.3v-8.4h2.3c1.5,0,2.4,0.3,3,0.8c1.2,0.7,1.8,2,1.8,3.4c0,1.7-0.7,2.9-1.9,3.6c-0.8,0.4-1.7,0.7-3,0.7H330.5z
	 M349.2,303.8h4.9v-27h-4.9V303.8z M365.7,303.8h4.9v-22.8h7.2l1.4-4.2h-21.3v4.2h7.9V303.8z M390.3,303.8h5v-10.6l9.2-16.3h-5.3
	l-6.3,11.9h-0.1l-6.3-11.9h-5.4l9.2,16.3V303.8z"/>
<path class="st1" d="M186.8,268.8h4.9v-15.3c0-0.9,0-2.3,0-3.4h0.1c0.5,1,1.3,2,1.8,2.8l5.9,8.5h2.2l5.3-8.3c0.5-0.7,1.5-2.3,1.8-3
	h0.1c-0.1,1.1-0.1,2.5-0.1,3.6v15.2h5v-27h-4.5l-6.5,10c-0.9,1.4-1.6,2.6-2.2,3.6h-0.1c-0.6-1.1-1.3-2.1-2.3-3.5l-7.1-10.2h-4.5
	V268.8z M217.4,268.8h5.1l2.5-6.8h9.6l2.6,6.8h5.3l-10.8-27.1h-3.9L217.4,268.8z M226.5,258l2-5.3c0.7-2.1,1.1-3.3,1.4-4.2h0.1
	c0.2,0.9,0.6,2.1,1.3,4.2l1.9,5.4H226.5z M246.2,268.8h14.5v-4.2h-9.6v-22.8h-4.9V268.8z M267,268.8h4.9V246h7.2l1.4-4.2h-21.3v4.2
	h7.9V268.8z M278,268.8h5.1l2.5-6.8h9.6l2.6,6.8h5.3l-10.8-27.1h-3.9L278,268.8z M287.1,258l2-5.3c0.7-2.1,1.1-3.3,1.4-4.2h0.1
	c0.2,0.9,0.6,2.1,1.4,4.2l1.9,5.4H287.1z M338.4,255.7h-5v8.6c-1.1,0.5-2.7,0.8-4.5,0.8c-5.8,0-9.2-3.8-9.2-9.6
	c0-5.7,3.4-9.7,9.9-9.7c2.9,0,5.3,0.7,7.4,1.8v-4.6c-2-0.7-4.7-1.3-7.8-1.3c-9,0-14.8,6-14.8,14.2c0,7.7,5.2,13.4,14.1,13.4
	c3.8,0,7.4-0.9,9.8-2.2V255.7z M341.6,268.8h5.1l2.5-6.8h9.6l2.6,6.8h5.3L356,241.7H352L341.6,268.8z M350.7,258l2-5.3
	c0.7-2.1,1.1-3.3,1.4-4.2h0.1c0.2,0.9,0.6,2.1,1.4,4.2l1.9,5.4H350.7z M370.4,268.8h4.9v-15.3c0-0.9,0-2.3,0-3.4h0.1
	c0.5,1,1.3,2,1.8,2.8l5.9,8.5h2.3l5.3-8.3c0.5-0.7,1.5-2.3,1.8-3h0.1c-0.1,1.1-0.1,2.5-0.1,3.6v15.2h5v-27H393l-6.5,10
	c-0.9,1.4-1.6,2.6-2.2,3.6h-0.1c-0.6-1.1-1.3-2.1-2.2-3.5l-7.1-10.2h-4.5V268.8z M404.2,268.8h4.9v-27h-4.9V268.8z M439.8,268.8v-27
	h-5v14.4c0,1.5,0,3.1,0.1,4.5h-0.1c-0.8-1.3-1.8-2.6-3-4.2l-11.3-14.8h-4.9v27h4.9v-15.3c0-1.6,0-3.1-0.1-4.2h0.1
	c0.9,1.2,1.8,2.6,3,4.1l11.7,15.4H439.8z M469,255.7h-5v8.6c-1.1,0.5-2.7,0.8-4.5,0.8c-5.8,0-9.2-3.8-9.2-9.6c0-5.7,3.4-9.7,9.9-9.7
	c2.9,0,5.3,0.7,7.4,1.8v-4.6c-2-0.7-4.7-1.3-7.8-1.3c-9,0-14.8,6-14.8,14.2c0,7.7,5.2,13.4,14.1,13.4c3.8,0,7.4-0.9,9.8-2.2V255.7z"
	/>
<path class="st2" d="M-59.7,304.1h19.4v-41.7c3.5-2.6,8-4,11.7-4c7.2,0,8,5.1,8,11.1v34.6h19.4v-40.4v-1.3c3.5-2.6,7.9-4,11.6-4
	c7.2,0,8.1,4.9,8.1,10.8v34.9H38v-39.9c0-17-10.4-22.5-21.6-22.5c-6.3,0-14,2.7-21.4,8.6c-3.2-5.4-8.9-8.6-16.6-8.6
	c-7.3,0-14.3,3.5-19.9,7.7l-1.8-6.2h-16.3V304.1z M72.7,334.6c23.2,0,34.1-9.9,34.1-20.8c0-22.8-40-12.9-40-23.2
	c0-0.6,0-1.3,0.5-2.7c1.8,0.5,4.4,0.8,6.9,0.8c15.6,0,26.5-8.9,26.5-22.9c0-5-1.5-9.8-4.4-13.5c1-0.4,2.8-0.5,3.6-0.5
	c1.5,0,3.5,0.3,5.1,0.6l3.6-13.4c-1-0.1-3.1-0.3-4.4-0.3c-8.8,0-12.7,2.2-16.2,5.4c-0.5,0.5-0.9,0.8-1.5,0.4
	c-2.6-1.5-7.1-2.8-12.7-2.8c-18.8,0-26.4,12.2-26.4,22.9c0,8,3.6,15.4,10.7,19.2c-4.9,2.7-8.1,6.9-8.1,11.2c0,3.1,1.4,6,4,7.5
	c-5.5,1.9-10.8,6.9-10.8,14C43.2,326.6,53.5,334.6,72.7,334.6 M75.5,321.5c-9.7,0-15.2-3.5-15.2-8.5c0-2.7,1.4-4.6,2.6-5.7
	c6.2,3.2,25.6,1.4,25.6,8.6C88.5,319.7,82.3,321.5,75.5,321.5 M74.1,274.5c-5.8,0-8.6-4.6-8.6-9.3c0-6.4,3.7-9.4,8.4-9.4
	c5.9,0,8.9,4.9,8.9,9.5C82.7,271.4,79,274.5,74.1,274.5 M150.6,304.1h16c-1-3.3-1-8.2-1-12v-27.3c0-14.8-7.7-23.2-26.5-23.2
	c-9.7,0-17.9,2.3-25.1,5.9l6,12.2c4.4-2.3,10.3-3.7,15.4-3.7c6.6,0,10.7,2.3,10.7,8v0.6l-9.7,0.4c-6.2,0.3-11.7,1.4-16.1,3.7
	c-6.3,3.3-10.2,8.4-10.2,16.6c0,11.7,8.8,19.9,20.7,19.9c7.6,0,12.9-2.8,17-6.4L150.6,304.1z M146.1,277v11.3
	c-1.4,0.9-4.6,2.2-8.9,2.2c-4.6,0-7.6-2.1-7.6-6.3c0-2.6,0.9-4.1,2.7-5.3c1.7-1,4.1-1.5,7.2-1.7L146.1,277z"/>
</svg>
